<svg id="visual" viewBox="0 0 960 300" width="960" height="300" xmlns="http://www.w3.org/2000/svg" xmlns:xlink="http://www.w3.org/1999/xlink" version="1.1"><path d="M0 143L80 143L80 176L160 176L160 167L240 167L240 144L320 144L320 172L400 172L400 167L480 167L480 147L560 147L560 173L640 173L640 160L720 160L720 162L800 162L800 157L880 157L880 156L960 156L960 168L960 301L960 301L880 301L880 301L800 301L800 301L720 301L720 301L640 301L640 301L560 301L560 301L480 301L480 301L400 301L400 301L320 301L320 301L240 301L240 301L160 301L160 301L80 301L80 301L0 301Z" fill="#2d3035"></path><path d="M0 187L80 187L80 189L160 189L160 178L240 178L240 199L320 199L320 199L400 199L400 201L480 201L480 177L560 177L560 213L640 213L640 183L720 183L720 189L800 189L800 188L880 188L880 184L960 184L960 196L960 301L960 301L880 301L880 301L800 301L800 301L720 301L720 301L640 301L640 301L560 301L560 301L480 301L480 301L400 301L400 301L320 301L320 301L240 301L240 301L160 301L160 301L80 301L80 301L0 301Z" fill="#282b2f"></path><path d="M0 210L80 210L80 218L160 218L160 228L240 228L240 227L320 227L320 233L400 233L400 241L480 241L480 234L560 234L560 240L640 240L640 247L720 247L720 241L800 241L800 221L880 221L880 211L960 211L960 216L960 301L960 301L880 301L880 301L800 301L800 301L720 301L720 301L640 301L640 301L560 301L560 301L480 301L480 301L400 301L400 301L320 301L320 301L240 301L240 301L160 301L160 301L80 301L80 301L0 301Z" fill="#232529"></path><path d="M0 269L80 269L80 262L160 262L160 258L240 258L240 267L320 267L320 277L400 277L400 271L480 271L480 278L560 278L560 278L640 278L640 275L720 275L720 258L800 258L800 271L880 271L880 279L960 279L960 278L960 301L960 301L880 301L880 301L800 301L800 301L720 301L720 301L640 301L640 301L560 301L560 301L480 301L480 301L400 301L400 301L320 301L320 301L240 301L240 301L160 301L160 301L80 301L80 301L0 301Z" fill="#1e2023"></path></svg>